<?xml version="1.0" encoding="UTF-8" standalone="no"?>
<!DOCTYPE svg PUBLIC "-//W3C//DTD SVG 1.1//EN" "http://www.w3.org/Graphics/SVG/1.1/DTD/svg11.dtd">
<svg version="1.1" xmlns="http://www.w3.org/2000/svg" xmlns:xlink="http://www.w3.org/1999/xlink" preserveAspectRatio="xMidYMid meet" viewBox="0 0 640 640" width="640" height="640"><defs><path d="M0 153.17L640 153.17L640 531.86L0 531.86L0 153.17Z" id="ccxMU4kQq"></path><path d="M431.07 343.94C431.07 440.52 352.66 518.94 256.07 518.94C159.49 518.94 81.07 440.52 81.07 343.94C81.07 247.35 159.49 168.94 256.07 168.94C352.66 168.94 431.07 247.35 431.07 343.94Z" id="brqsb7FNz"></path><path d="M255.62 168.66L642.26 168.66L642.26 518.66L255.62 518.66L255.62 168.66Z" id="biqkdY8Xm"></path><path d="M339.81 422.39L612.33 422.39C612.33 430.76 612.33 436 612.33 438.09C612.33 442.29 608.93 445.69 604.73 445.69C551.75 445.69 400.4 445.69 347.41 445.69C343.22 445.69 339.81 442.29 339.81 438.09C339.81 436 339.81 430.76 339.81 422.39Z" id="e3qI6c9gAi"></path><path d="M244.4 519.94L604.04 519.94L558.66 479.85L205.15 479.85L180.11 502.71C184.56 504.57 187.35 505.74 188.46 506.21C204.26 512.83 220.91 517.2 237.93 519.18C238.79 519.28 240.95 519.53 244.4 519.94Z" id="bfqerbact"></path><path d="M206.54 462.09L220.91 492.33L245.23 492.33L245.23 462.09L206.54 462.09Z" id="a1KTuxNbtM"></path><path d="M283.61 462.09L269.24 492.33L244.92 492.33L244.92 462.09L283.61 462.09Z" id="fbG42BSZt"></path><path d="M244.25 388.28L246.52 388.28L246.52 462.25L244.25 462.25L244.25 388.28Z" id="a44s4oyAVn"></path><path d="M339.81 260.35L612.33 260.35L612.33 422.74L339.81 422.74L339.81 260.35Z" id="c2Nu2x4Bu"></path><path d="M245.38 391.9C243.96 391.59 242.47 391.05 240.91 390.28C239.35 389.5 237.73 387.8 236.05 385.17C233.07 380.54 231.51 375.82 231.38 371.03C231.25 366.23 232.81 360.97 236.05 355.25L245.38 343.66L245.38 385.17L245.38 391.9Z" id="a2BccUlJB"></path><path d="M244.92 391.9C246.35 391.59 247.84 391.05 249.39 390.28C250.95 389.5 252.57 387.8 254.26 385.17C257.24 380.54 258.79 375.82 258.92 371.03C259.05 366.23 257.5 360.97 254.26 355.25L244.92 343.66L244.92 385.17L244.92 391.9Z" id="f1mwexyn42"></path><path d="M245.38 439.03L245.76 435.33L247.65 431.64L249.55 428.31L251.82 424.98L254.47 421.65L257.12 418.69L260.15 415.36L263.56 412.77L266.97 410.55L270.75 408.71L274.54 406.86" id="e8hJQq7Rf"></path><path d="M266.15 405.62C265.77 403.58 266.19 400.96 267.4 397.78C269.16 395.33 271.94 392.93 275.76 390.58C279.58 388.23 284.09 387.01 289.28 386.92L306.96 389C290.16 398.51 279.65 404.46 275.45 406.84C275.45 406.84 270.9 409.41 270.9 409.41C270.26 409.77 269.86 410 269.03 410.47C268.34 410.86 267.47 410.53 267.21 409.78C266.78 408.51 266.42 407.13 266.15 405.62Z" id="eCAzFwz"></path><path d="M524.23 471.65C526.28 471.65 527.93 473.31 527.93 475.35C527.93 475.84 527.93 477.07 527.93 479.05L454.51 479.05C454.51 477.07 454.51 475.84 454.51 475.35C454.51 473.31 456.17 471.65 458.21 471.65C472.16 471.65 510.29 471.65 524.23 471.65Z" id="bGz0bnv6s"></path><path d="M498.74 445.69L512.76 472.41L453.23 472.41L466.6 445.69L498.74 445.69Z" id="c31cuDfYyC"></path><path d="M271.37 413.18C273.01 414.51 275.95 414.88 280.21 414.29C283.62 413.93 287.31 412.71 291.28 410.63C295.25 408.56 298.19 405.46 300.08 401.34L306.96 388.28C291.48 397.09 281.81 402.6 277.94 404.8C277.94 404.8 268.6 410.12 268.6 410.12C268.44 410.21 269.96 409.34 269.14 409.81C268.53 410.16 268.5 411.03 269.08 411.42C269.54 411.73 270.31 412.31 271.37 413.18Z" id="b81iLmX6k"></path><path d="M231.16 438.66L234.57 440.51L237.6 443.1L241.01 447.17L242.9 450.87L244.41 454.57L244.79 458.26L245.17 461.96" id="dKh6h1hWR"></path><path d="M235.2 440.41C235.87 438.44 235.49 435.63 234.08 432C232.43 428.82 229.89 425.8 226.46 422.94C223.03 420.09 219.76 418.41 216.66 417.91L199.43 414.57C213.47 425.43 222.25 432.22 225.76 434.93C225.76 434.93 234.24 441.49 234.24 441.49C234.38 441.6 233 440.53 233.75 441.11C234.28 441.52 235.05 441.19 235.13 440.53C235.12 440.61 235.14 440.56 235.2 440.41Z" id="b8gveGcLL"></path><path d="M230.88 443.52C229.07 444.61 226.1 444.57 221.97 443.4C218.65 442.57 215.17 440.86 211.54 438.26C207.9 435.66 205.44 432.19 204.16 427.85L199.23 413.97C213.29 424.82 222.07 431.6 225.58 434.31C225.58 434.31 234.07 440.86 234.07 440.86C234.21 440.97 232.83 439.91 233.58 440.49C234.13 440.91 234.04 441.77 233.41 442.08C232.91 442.32 232.06 442.8 230.88 443.52Z" id="b4HX8pOAg"></path><path d="M318.33 506.33L466 506.33C466 509.62 466 511.67 466 512.49C466 513.98 464.79 515.19 463.3 515.19C434.31 515.19 350.02 515.19 321.03 515.19C319.54 515.19 318.33 513.98 318.33 512.49C318.33 511.67 318.33 509.62 318.33 506.33Z" id="aoHqOJBun"></path><path d="M438.97 506.1L466.22 506.1C466.21 508.98 466.21 510.78 466.21 511.5C466.21 513.41 464.65 514.96 462.74 514.96C461.46 514.96 458.24 514.96 453.1 514.96C446.14 514.97 441.78 514.97 440.04 514.97C439.44 514.97 438.95 514.48 438.95 513.87C438.95 512.84 438.96 510.25 438.97 506.1Z" id="l1fCZHkv"></path><path d="M444.6 506.33L444.6 515.19L396.37 515.19L398.52 506.33L444.6 506.33Z" id="b1Em3X9Sj"></path><path d="M348.1 270.22L604.04 270.22L604.04 413.65L348.1 413.65L348.1 270.22Z" id="aptsfrWPf"></path><path d="M353.16 276.53L597.83 276.53L597.83 294.61L353.16 294.61L353.16 276.53Z" id="e4dv8J6kAS"></path><path d="M357.14 282.14L409.52 282.14L409.52 288.45L357.14 288.45L357.14 282.14Z" id="cbE1hJula"></path><path d="M418 282.14L470.38 282.14L470.38 288.45L418 288.45L418 282.14Z" id="b1NizDBwE0"></path><path d="M479.77 282.14L532.15 282.14L532.15 288.45L479.77 288.45L479.77 282.14Z" id="a49DiefR0K"></path><path d="M540.63 282.14L593.01 282.14L593.01 288.45L540.63 288.45L540.63 282.14Z" id="a1HL5deRfz"></path><path d="M354.07 300.09L476.98 300.09L476.98 407.99L354.07 407.99L354.07 300.09Z" id="c2aUS9Xkae"></path><path d="M476.98 406.59L476.98 312.96C461.75 321.74 452.81 331.27 450.16 341.54C447.61 351.41 421.67 366.7 407.53 367.47C399.58 367.91 382.67 375.01 378.02 376.02C369.4 377.89 361.42 388.55 354.07 407.99L476.98 406.59Z" id="a29w5OFTk7"></path><path d="M481.76 301.84L595.84 301.84L595.84 406.24L481.76 406.24L481.76 301.84Z" id="azpv3v9Bc"></path><path d="M550.09 319.32C551.19 319.32 552.08 320.21 552.08 321.31C552.08 321.75 552.08 321.09 552.08 321.53C552.08 322.63 551.19 323.52 550.09 323.52C537.36 323.52 501.15 323.52 488.42 323.52C487.33 323.52 486.44 322.63 486.44 321.53C486.44 321.09 486.44 321.75 486.44 321.31C486.44 320.21 487.33 319.32 488.42 319.32C501.15 319.32 537.36 319.32 550.09 319.32Z" id="o3Q2Q9uULH"></path><path d="M566.8 308.76C568.19 308.76 569.32 309.88 569.32 311.27C569.32 312.03 569.32 311.79 569.32 312.55C569.32 313.94 568.19 315.07 566.8 315.07C550.73 315.07 505.02 315.07 488.95 315.07C487.56 315.07 486.44 313.94 486.44 312.55C486.44 311.79 486.44 312.03 486.44 311.27C486.44 309.88 487.56 308.76 488.95 308.76C505.02 308.76 550.73 308.76 566.8 308.76Z" id="bIcrNR8Cs"></path><path d="M486.44 329.71L589.21 329.71L589.21 374.1L486.44 374.1L486.44 329.71Z" id="bj7EQ3c9e"></path><path d="M490.41 350.24L573.29 350.24L573.29 368.31L490.41 368.31L490.41 350.24Z" id="jqd8Jehxl"></path><path d="M522.9 333.98L585.23 333.98L585.23 344.49L522.9 344.49L522.9 333.98Z" id="d3g5Xdrjz"></path><path d="M588.29 379.36C589.9 379.36 591.2 380.67 591.2 382.27C591.2 382.95 591.2 382.08 591.2 382.76C591.2 384.37 589.9 385.67 588.29 385.67C574.02 385.67 534.11 385.67 519.84 385.67C518.24 385.67 516.94 384.37 516.94 382.76C516.94 382.08 516.94 382.95 516.94 382.27C516.94 380.67 518.24 379.36 519.84 379.36C534.11 379.36 574.02 379.36 588.29 379.36Z" id="eDRXtXAFm"></path><path d="M542.56 389.54C543.79 389.54 544.78 390.53 544.78 391.76C544.78 392.26 544.78 391.52 544.78 392.01C544.78 393.24 543.79 394.24 542.56 394.24C531.33 394.24 499.88 394.24 488.66 394.24C487.43 394.24 486.44 393.24 486.44 392.01C486.44 391.52 486.44 392.26 486.44 391.76C486.44 390.53 487.43 389.54 488.66 389.54C499.88 389.54 531.33 389.54 542.56 389.54Z" id="boouQvAAO"></path><path d="M573.44 398.18C574.67 398.18 575.67 399.17 575.67 400.4C575.67 400.9 575.67 400.16 575.67 400.65C575.67 401.88 574.67 402.88 573.44 402.88C562.22 402.88 530.77 402.88 519.54 402.88C518.32 402.88 517.32 401.88 517.32 400.65C517.32 400.16 517.32 400.9 517.32 400.4C517.32 399.17 518.32 398.18 519.54 398.18C530.77 398.18 562.22 398.18 573.44 398.18Z" id="b6fYduwDwI"></path><path d="M489.13 433.4C489.13 437.48 485.74 440.8 481.56 440.8C477.38 440.8 473.99 437.48 473.99 433.4C473.99 429.32 477.38 426 481.56 426C485.74 426 489.13 429.32 489.13 433.4Z" id="al7DkqTrG"></path><path d="M332.61 478.71C314.6 478.55 303.34 478.45 298.84 478.41C290.43 478.34 286.2 468.22 292.06 462.19C297.47 456.62 310.98 442.71 332.61 420.45L332.61 478.71Z" id="bPVpsXeeh"></path><path d="M328.93 464L314.01 464L328.93 449.92L328.93 464Z" id="bq24mM4UO"></path><path d="M456.21 479.45C474.22 479.29 485.48 479.19 489.98 479.15C498.39 479.08 502.61 468.96 496.75 462.93C491.35 457.36 477.83 443.45 456.21 421.19L456.21 479.45Z" id="d1pq5NR0xj"></path><path d="M457.73 464.39L472.65 464.39L457.73 450.31L457.73 464.39Z" id="ehQJ4mL9S"></path><path d="M399.92 352.1L352.64 389.54L326.5 389.54C328.68 384.65 331 378.29 333.44 370.44C335.88 362.6 337.39 353.9 337.97 344.34L340.87 294.61L399.92 352.1Z" id="g1j4MoNbSj"></path><path d="M332.61 424.62L393.05 424.09L391.81 367.14C379.74 367.85 369.65 368.24 361.54 368.31C353.44 368.39 348.09 370.48 345.51 374.58L311.05 418.31L327.42 433.4L332.61 424.62Z" id="a1qkPgnGRS"></path><path d="M450.73 425.36L390.29 424.83L391.53 367.88C403.6 368.23 413.69 368.44 421.8 368.52C429.9 368.59 435.8 372.09 439.48 379L472.29 419.05L455.92 434.14L450.73 425.36Z" id="bUynn9VEj"></path><path d="M383.42 348.09L406.01 348.09L406.01 378.33L383.42 378.33L383.42 348.09Z" id="a5BMjj0st2"></path><path d="M390.29 382.68C386.97 392.4 383.1 396.72 378.68 395.64C374.26 394.56 372.23 390.69 372.59 384.04C370.38 387.63 367.62 387.18 364.31 382.68C360.99 378.19 363.75 373.01 372.59 367.14L390.29 382.68Z" id="aqeToE9Lh"></path><path d="M391.81 382.68C395.13 392.4 399 396.72 403.42 395.64C407.84 394.56 409.87 390.69 409.52 384.04C411.72 387.63 414.48 387.18 417.79 382.68C421.11 378.19 418.35 373.01 409.52 367.14L391.81 382.68Z" id="a55g5F2ecN"></path><path d="M383.57 381.19C389.61 384.26 393.41 383.91 394.99 380.15L394.28 364.72L378.75 364.72L372.39 366.99C373.81 373.4 377.53 378.13 383.57 381.19Z" id="e6z5PqNUwx"></path><path d="M397.65 381.93C391.07 385 386.92 384.65 385.21 380.89L385.98 365.46L402.91 365.46L409.83 367.73C408.29 374.14 404.23 378.87 397.65 381.93Z" id="cmoduIq89"></path><path d="M429.44 220.43C433.01 216.28 438.95 222.03 447.27 237.69C452.6 247.73 455.8 258.76 456.67 270.09C457.79 284.58 458.48 296.06 458.75 304.52C459.17 317.99 457.93 328.84 458.75 333.07C459.92 339.14 459.92 350.48 465.19 357.28C468.35 361.36 473.7 368.62 481.24 379.05C482.07 380.19 481.44 381.79 480.07 382.07C470.18 384.1 445.45 389.16 405.88 397.26C406.61 371.53 407.07 355.44 407.25 349.01C407.27 348.44 407.42 347.89 407.7 347.4C410.68 342.2 418.13 329.2 430.05 308.4L438.74 294.14L448.66 280.53L441.25 283.48L441.25 273.07L438.74 264.11C426.26 262.24 417.66 260.56 412.95 259.07C405.89 256.83 394.31 248.43 388.72 243.95C384.99 240.96 380.15 234.13 374.19 223.46C404.93 228.53 423.34 227.52 429.44 220.43Z" id="d3NyMkmJfH"></path><path d="M441.5 288.05C441.5 323.25 418.97 351.82 391.21 351.82C363.45 351.82 340.92 323.25 340.92 288.05C340.92 252.85 363.45 224.27 391.21 224.27C418.97 224.27 441.5 252.85 441.5 288.05Z" id="aDUUCROLq"></path><path d="M357.86 299.33L344.71 307.43C335.61 296.99 332.16 289.08 334.38 283.68C336.59 278.28 341.14 279.89 348.02 288.51L357.86 299.33Z" id="d1NGvbsZ7u"></path><path d="M425.49 300.09L438.64 308.19C447.73 297.75 451.18 289.84 448.97 284.44C446.76 279.04 442.21 280.65 435.32 289.27L425.49 300.09Z" id="cq8Jv9N55"></path><path d="M343.73 285.3L350.08 262.17C353.59 253.4 357.95 246.47 363.16 241.35C368.38 236.24 377.93 229.3 391.81 220.54C390.84 218.1 390.23 216.58 389.98 215.97C388.36 211.9 384.16 209.48 379.82 210.11C379.26 210.2 377.84 210.4 375.58 210.73C374.34 211.12 373.56 211.37 373.25 211.46C368.64 212.92 364.36 215.27 360.66 218.39C355.96 222.35 353.16 224.89 352.26 226.02C346.73 232.95 341.71 250.54 337.19 278.78L343.73 285.3Z" id="b4OFDOky1s"></path><path d="M373.03 213.68C379.92 209.9 384.22 207.55 385.94 206.6C392.92 202.78 401.14 201.89 408.78 204.13C412.62 205.25 409.44 204.32 412.59 205.24C422.62 208.18 431.54 214.06 438.2 222.13C438.52 222.51 439.32 223.48 440.6 225.02C441.72 227.07 442.42 228.35 442.7 228.86C448.69 239.8 452.13 251.96 452.75 264.42C452.86 266.5 453.12 271.68 453.53 279.99C436.4 273.85 424.01 268.75 416.38 264.69C406.85 259.62 391.22 249.95 387.15 247.08C379.81 241.91 374.31 235.44 370.65 227.69L373.03 213.68Z" id="aG2etAHj"></path><path d="M460.45 410.32C463.48 410.32 465.94 412.78 465.94 415.82C465.94 433.22 465.94 479.93 465.94 497.33C465.94 500.37 463.48 502.83 460.45 502.83C432.01 502.83 352.21 502.83 323.77 502.83C320.73 502.83 318.27 500.37 318.27 497.33C318.27 479.93 318.27 433.22 318.27 415.82C318.27 412.78 320.73 410.32 323.77 410.32C352.21 410.32 432.01 410.32 460.45 410.32Z" id="a17nww6lH8"></path><path d="M400.43 502.58L424.61 410.32L443.95 410.32C445.89 457.56 447.1 487.08 447.59 498.89C447.67 501.05 445.94 502.84 443.78 502.83C438 502.8 423.55 502.71 400.43 502.58Z" id="d8wLsQhmM"></path><path d="M460.01 410.32C463.29 410.32 465.94 412.97 465.94 416.25C465.94 433.57 465.94 479.58 465.94 496.89C465.94 500.17 463.29 502.83 460.01 502.83C456.27 502.83 448.79 502.83 444.5 502.83C442.74 502.83 441.32 501.4 441.32 499.64C441.32 481.78 441.32 431.36 441.32 413.5C441.32 411.74 442.74 410.32 444.5 410.32C448.79 410.32 456.27 410.32 460.01 410.32Z" id="a3QVxed5l"></path></defs><g><g><g><use xlink:href="#ccxMU4kQq" opacity="1" fill="#342d30" fill-opacity="1"></use></g><g><use xlink:href="#brqsb7FNz" opacity="1" fill="#dfebe7" fill-opacity="1"></use></g><g><use xlink:href="#biqkdY8Xm" opacity="1" fill="#dfebe7" fill-opacity="1"></use></g><g><use xlink:href="#e3qI6c9gAi" opacity="1" fill="#9a9a9a" fill-opacity="1"></use></g><g><use xlink:href="#bfqerbact" opacity="1" fill="#2e4b48" fill-opacity="1"></use><g><use xlink:href="#bfqerbact" opacity="1" fill-opacity="0" stroke="#000000" stroke-width="0" stroke-opacity="1"></use></g></g><g><use xlink:href="#a1KTuxNbtM" opacity="1" fill="#794a15" fill-opacity="1"></use><g><use xlink:href="#a1KTuxNbtM" opacity="1" fill-opacity="0" stroke="#000000" stroke-width="0" stroke-opacity="1"></use></g></g><g><use xlink:href="#fbG42BSZt" opacity="1" fill="#683a15" fill-opacity="1"></use><g><use xlink:href="#fbG42BSZt" opacity="1" fill-opacity="0" stroke="#000000" stroke-width="0" stroke-opacity="1"></use></g></g><g><use xlink:href="#a44s4oyAVn" opacity="1" fill="#07a978" fill-opacity="1"></use></g><g><use xlink:href="#c2Nu2x4Bu" opacity="1" fill="#4d4d4d" fill-opacity="1"></use></g><g><use xlink:href="#a2BccUlJB" opacity="1" fill="#07a978" fill-opacity="1"></use><g><use xlink:href="#a2BccUlJB" opacity="1" fill-opacity="0" stroke="#000000" stroke-width="0" stroke-opacity="1"></use></g></g><g><use xlink:href="#f1mwexyn42" opacity="1" fill="#067455" fill-opacity="1"></use><g><use xlink:href="#f1mwexyn42" opacity="1" fill-opacity="0" stroke="#000000" stroke-width="0" stroke-opacity="1"></use></g></g><g><g><use xlink:href="#e8hJQq7Rf" opacity="1" fill-opacity="0" stroke="#07a978" stroke-width="3" stroke-opacity="1"></use></g></g><g><use xlink:href="#eCAzFwz" opacity="1" fill="#07a978" fill-opacity="1"></use><g><use xlink:href="#eCAzFwz" opacity="1" fill-opacity="0" stroke="#000000" stroke-width="0" stroke-opacity="1"></use></g></g><g><use xlink:href="#bGz0bnv6s" opacity="1" fill="#d2d2d2" fill-opacity="1"></use><g><use xlink:href="#bGz0bnv6s" opacity="1" fill-opacity="0" stroke="#000000" stroke-width="0" stroke-opacity="1"></use></g></g><g><use xlink:href="#c31cuDfYyC" opacity="1" fill="#d2d2d2" fill-opacity="1"></use><g><use xlink:href="#c31cuDfYyC" opacity="1" fill-opacity="0" stroke="#000000" stroke-width="0" stroke-opacity="1"></use></g></g><g><use xlink:href="#b81iLmX6k" opacity="1" fill="#067455" fill-opacity="1"></use><g><use xlink:href="#b81iLmX6k" opacity="1" fill-opacity="0" stroke="#000000" stroke-width="0" stroke-opacity="1"></use></g></g><g><g><use xlink:href="#dKh6h1hWR" opacity="1" fill-opacity="0" stroke="#07a978" stroke-width="3" stroke-opacity="1"></use></g></g><g><use xlink:href="#b8gveGcLL" opacity="1" fill="#067455" fill-opacity="1"></use><g><use xlink:href="#b8gveGcLL" opacity="1" fill-opacity="0" stroke="#000000" stroke-width="0" stroke-opacity="1"></use></g></g><g><use xlink:href="#b4HX8pOAg" opacity="1" fill="#07a978" fill-opacity="1"></use><g><use xlink:href="#b4HX8pOAg" opacity="1" fill-opacity="0" stroke="#000000" stroke-width="0" stroke-opacity="1"></use></g></g><g><use xlink:href="#aoHqOJBun" opacity="1" fill="#d2d2d2" fill-opacity="1"></use></g><g><use xlink:href="#l1fCZHkv" opacity="1" fill="#9c9c9c" fill-opacity="1"></use></g><g><use xlink:href="#b1Em3X9Sj" opacity="1" fill="#9c9c9c" fill-opacity="1"></use><g><use xlink:href="#b1Em3X9Sj" opacity="1" fill-opacity="0" stroke="#07a978" stroke-width="0" stroke-opacity="1"></use></g></g><g><use xlink:href="#aptsfrWPf" opacity="1" fill="#ffffff" fill-opacity="1"></use></g><g><use xlink:href="#e4dv8J6kAS" opacity="1" fill="#fb738a" fill-opacity="1"></use></g><g><use xlink:href="#cbE1hJula" opacity="1" fill="#df4a63" fill-opacity="1"></use></g><g><use xlink:href="#b1NizDBwE0" opacity="1" fill="#df4a63" fill-opacity="1"></use></g><g><use xlink:href="#a49DiefR0K" opacity="1" fill="#df4a63" fill-opacity="1"></use></g><g><use xlink:href="#a1HL5deRfz" opacity="1" fill="#df4a63" fill-opacity="1"></use></g><g><use xlink:href="#c2aUS9Xkae" opacity="1" fill="#9fdaff" fill-opacity="1"></use></g><g><use xlink:href="#a29w5OFTk7" opacity="1" fill="#75bae7" fill-opacity="1"></use><g><use xlink:href="#a29w5OFTk7" opacity="1" fill-opacity="0" stroke="#000000" stroke-width="0" stroke-opacity="1"></use></g></g><g><use xlink:href="#azpv3v9Bc" opacity="1" fill="#ffffff" fill-opacity="1"></use><g><use xlink:href="#azpv3v9Bc" opacity="1" fill-opacity="0" stroke="#4eaaa7" stroke-width="2" stroke-opacity="1"></use></g></g><g><use xlink:href="#o3Q2Q9uULH" opacity="1" fill="#7e7e7e" fill-opacity="1"></use></g><g><use xlink:href="#bIcrNR8Cs" opacity="1" fill="#7e7e7e" fill-opacity="1"></use></g><g><use xlink:href="#bj7EQ3c9e" opacity="1" fill="#c1fbaa" fill-opacity="1"></use></g><g><use xlink:href="#jqd8Jehxl" opacity="1" fill="#ffffff" fill-opacity="1"></use></g><g><use xlink:href="#d3g5Xdrjz" opacity="1" fill="#ffffff" fill-opacity="1"></use></g><g><use xlink:href="#eDRXtXAFm" opacity="1" fill="#4eaaa7" fill-opacity="1"></use></g><g><use xlink:href="#boouQvAAO" opacity="1" fill="#4eaaa7" fill-opacity="1"></use></g><g><use xlink:href="#b6fYduwDwI" opacity="1" fill="#4eaaa7" fill-opacity="1"></use></g><g><use xlink:href="#al7DkqTrG" opacity="1" fill="#3c5f40" fill-opacity="0"></use><g><use xlink:href="#al7DkqTrG" opacity="1" fill-opacity="0" stroke="#000000" stroke-width="1" stroke-opacity="1"></use></g></g><g><use xlink:href="#bPVpsXeeh" opacity="1" fill="#fde4c8" fill-opacity="1"></use><g><use xlink:href="#bPVpsXeeh" opacity="1" fill-opacity="0" stroke="#000000" stroke-width="0" stroke-opacity="1"></use></g></g><g><use xlink:href="#bq24mM4UO" opacity="1" fill="#ffffff" fill-opacity="1"></use><g><use xlink:href="#bq24mM4UO" opacity="1" fill-opacity="0" stroke="#000000" stroke-width="0" stroke-opacity="1"></use></g></g><g><use xlink:href="#d1pq5NR0xj" opacity="1" fill="#fde4c8" fill-opacity="1"></use><g><use xlink:href="#d1pq5NR0xj" opacity="1" fill-opacity="0" stroke="#000000" stroke-width="0" stroke-opacity="1"></use></g></g><g><use xlink:href="#ehQJ4mL9S" opacity="1" fill="#ffffff" fill-opacity="1"></use><g><use xlink:href="#ehQJ4mL9S" opacity="1" fill-opacity="0" stroke="#000000" stroke-width="0" stroke-opacity="1"></use></g></g><g><use xlink:href="#g1j4MoNbSj" opacity="1" fill="#000000" fill-opacity="1"></use><g><use xlink:href="#g1j4MoNbSj" opacity="1" fill-opacity="0" stroke="#000000" stroke-width="1" stroke-opacity="1"></use></g></g><g><use xlink:href="#a1qkPgnGRS" opacity="1" fill="#b76b75" fill-opacity="1"></use><g><use xlink:href="#a1qkPgnGRS" opacity="1" fill-opacity="0" stroke="#000000" stroke-width="0" stroke-opacity="1"></use></g></g><g><use xlink:href="#bUynn9VEj" opacity="1" fill="#b76b75" fill-opacity="1"></use><g><use xlink:href="#bUynn9VEj" opacity="1" fill-opacity="0" stroke="#000000" stroke-width="0" stroke-opacity="1"></use></g></g><g><use xlink:href="#a5BMjj0st2" opacity="1" fill="#fde4c8" fill-opacity="1"></use></g><g><use xlink:href="#aqeToE9Lh" opacity="1" fill="#f0bab2" fill-opacity="1"></use><g><use xlink:href="#aqeToE9Lh" opacity="1" fill-opacity="0" stroke="#000000" stroke-width="0" stroke-opacity="1"></use></g></g><g><use xlink:href="#a55g5F2ecN" opacity="1" fill="#f0bab2" fill-opacity="1"></use><g><use xlink:href="#a55g5F2ecN" opacity="1" fill-opacity="0" stroke="#000000" stroke-width="0" stroke-opacity="1"></use></g></g><g><use xlink:href="#e6z5PqNUwx" opacity="1" fill="#fde4c8" fill-opacity="1"></use><g><use xlink:href="#e6z5PqNUwx" opacity="1" fill-opacity="0" stroke="#000000" stroke-width="0" stroke-opacity="1"></use></g></g><g><use xlink:href="#cmoduIq89" opacity="1" fill="#fde4c8" fill-opacity="1"></use><g><use xlink:href="#cmoduIq89" opacity="1" fill-opacity="0" stroke="#000000" stroke-width="0" stroke-opacity="1"></use></g></g><g><use xlink:href="#d3NyMkmJfH" opacity="1" fill="#000000" fill-opacity="1"></use><g><use xlink:href="#d3NyMkmJfH" opacity="1" fill-opacity="0" stroke="#000000" stroke-width="1" stroke-opacity="1"></use></g></g><g><use xlink:href="#aDUUCROLq" opacity="1" fill="#fde4c8" fill-opacity="1"></use></g><g><use xlink:href="#d1NGvbsZ7u" opacity="1" fill="#fde4c8" fill-opacity="1"></use><g><use xlink:href="#d1NGvbsZ7u" opacity="1" fill-opacity="0" stroke="#000000" stroke-width="0" stroke-opacity="1"></use></g></g><g><use xlink:href="#cq8Jv9N55" opacity="1" fill="#fde4c8" fill-opacity="1"></use><g><use xlink:href="#cq8Jv9N55" opacity="1" fill-opacity="0" stroke="#000000" stroke-width="0" stroke-opacity="1"></use></g></g><g><use xlink:href="#b4OFDOky1s" opacity="1" fill="#000000" fill-opacity="1"></use><g><use xlink:href="#b4OFDOky1s" opacity="1" fill-opacity="0" stroke="#000000" stroke-width="1" stroke-opacity="1"></use></g></g><g><use xlink:href="#aG2etAHj" opacity="1" fill="#000000" fill-opacity="1"></use><g><use xlink:href="#aG2etAHj" opacity="1" fill-opacity="0" stroke="#000000" stroke-width="1" stroke-opacity="1"></use></g></g><g><use xlink:href="#a17nww6lH8" opacity="1" fill="#d2d2d2" fill-opacity="1"></use></g><g><use xlink:href="#d8wLsQhmM" opacity="1" fill="#9c9c9c" fill-opacity="1"></use><g><use xlink:href="#d8wLsQhmM" opacity="1" fill-opacity="0" stroke="#07a978" stroke-width="0" stroke-opacity="1"></use></g></g><g><use xlink:href="#a3QVxed5l" opacity="1" fill="#9c9c9c" fill-opacity="1"></use></g></g></g></svg>