<?xml version="1.0" encoding="UTF-8" standalone="no"?>
<!DOCTYPE svg PUBLIC "-//W3C//DTD SVG 1.1//EN" "http://www.w3.org/Graphics/SVG/1.1/DTD/svg11.dtd">
<svg version="1.1" xmlns="http://www.w3.org/2000/svg" xmlns:xlink="http://www.w3.org/1999/xlink" preserveAspectRatio="xMidYMid meet" viewBox="0 0 640 640" width="640" height="640"><defs><path d="M95.2 359.48C98.47 347.19 104.06 335.64 111.66 325.45C120.59 313.47 132.23 297.83 140.25 287.07C150.28 273.62 166.37 266.09 183.11 267C196.45 267.73 190.27 267.39 198.77 267.85C229.57 269.53 258.28 252.24 271.21 224.23C280.7 203.68 294.36 174.08 305.5 149.94C313.77 132.03 330.07 119.12 349.4 115.17C328.9 119.36 339.26 117.24 380.47 108.82C440.32 96.59 503.11 59.85 544.45 112.22C546.18 114.4 540.85 119.17 542.5 121.45C544.05 123.58 551.36 140.45 564.44 172.05C571.25 188.5 579.86 204.16 590.09 218.73C595.5 226.42 599.73 232.44 605.99 241.35C613.38 251.86 619.72 263.08 624.92 274.83C627.86 281.46 623.55 271.74 625.17 275.38C634.5 296.44 636.15 320.11 629.84 342.26C626.42 354.28 623.95 362.96 620.04 376.7C615.43 392.9 618.43 410.31 628.21 424.02C629.57 425.92 632.95 430.67 638.38 438.27L49.53 439.59C58.32 431.93 63.81 427.15 66.01 425.24C75.91 416.62 83.01 405.24 86.39 392.55C89.14 382.22 92.4 369.99 95.2 359.48Z" id="a27FLpqec"></path><path d="M53.13 435.16L638.38 435.16L597.87 490.09L2.74 490.09L53.13 435.16Z" id="belrPc8n"></path><path d="M523.3 64.59C537.04 64.59 548.18 75.73 548.18 89.47C548.18 162.87 548.18 355.49 548.18 428.22C548.18 443.82 535.53 456.48 519.92 456.48C480.7 456.48 394.47 456.48 356.04 456.48C338.24 456.48 323.82 442.06 323.82 424.26C323.82 352.33 323.82 165.58 323.82 92.86C323.82 77.25 336.48 64.59 352.09 64.59C391.3 64.59 483.41 64.59 523.3 64.59Z" id="lBPfnuBpB"></path><path d="M519.79 77.71C527.53 77.71 533.81 83.99 533.81 91.73C533.81 162.06 533.81 357.95 533.81 428C533.81 436.49 526.93 443.36 518.45 443.36C482.4 443.36 394.02 443.36 359.07 443.36C347.54 443.36 338.19 434.01 338.19 422.48C338.19 353.53 338.19 163.91 338.19 94.05C338.19 85.03 345.51 77.71 354.54 77.71C390.39 77.71 483.47 77.71 519.79 77.71Z" id="gCmN3DpGI"></path><path d="M471.57 70.06C477.61 70.06 482.51 74.96 482.51 81C482.51 85.04 482.51 86.23 482.51 90.28C482.51 96.32 477.61 101.21 471.57 101.21C455.15 101.21 416.85 101.21 400.43 101.21C394.39 101.21 389.49 96.32 389.49 90.28C389.49 86.23 389.49 85.04 389.49 81C389.49 74.96 394.39 70.06 400.43 70.06C416.85 70.06 455.15 70.06 471.57 70.06Z" id="i14LwVudDq"></path><path d="M412.92 85.53C412.92 88.63 410.47 91.15 407.45 91.15C404.43 91.15 401.98 88.63 401.98 85.53C401.98 82.43 404.43 79.91 407.45 79.91C410.47 79.91 412.92 82.43 412.92 85.53Z" id="c14z0hE7uu"></path><path d="M463.74 81.32C466.07 81.32 467.95 83.2 467.95 85.53C467.95 86.37 467.95 84.69 467.95 85.53C467.95 87.86 466.07 89.74 463.74 89.74C455 89.74 433 89.74 424.26 89.74C421.93 89.74 420.05 87.86 420.05 85.53C420.05 84.69 420.05 86.37 420.05 85.53C420.05 83.2 421.93 81.32 424.26 81.32C433 81.32 455 81.32 463.74 81.32Z" id="e1pknTDFCH"></path><path d="M516.42 405.03C522.06 405.03 526.62 409.59 526.62 415.22C526.62 418.76 526.62 419.19 526.62 422.73C526.62 428.36 522.06 432.92 516.42 432.92C482.53 432.92 391.06 432.92 357.17 432.92C351.54 432.92 346.98 428.36 346.98 422.73C346.98 419.19 346.98 418.76 346.98 415.22C346.98 409.59 351.54 405.03 357.17 405.03C391.06 405.03 482.53 405.03 516.42 405.03Z" id="e376dVV3jp"></path><path d="M523.16 418.88C523.16 424.77 518.5 429.55 512.77 429.55C507.03 429.55 502.37 424.77 502.37 418.88C502.37 413 507.03 408.21 512.77 408.21C518.5 408.21 523.16 413 523.16 418.88Z" id="bw3ndw7lR"></path><path d="M513.3 426.19L513.3 412.95L513.3 426.19Z" id="bIS0faX9i"></path><path d="M519.64 418.88L512.94 412.71L519.64 418.88Z" id="c1NG7OwTu0"></path><path d="M506.52 418.88L513.22 412.71L506.52 418.88Z" id="a32uPGavJr"></path><path d="M356.85 411.28L359.04 411.28L359.04 427.31L356.85 427.31L356.85 411.28Z" id="e16k7fAQP"></path><path d="M448.62 128.95C454.66 128.95 459.55 133.85 459.55 139.89C459.55 148.69 459.55 164.14 459.55 172.94C459.55 178.98 454.66 183.88 448.62 183.88C428.29 183.88 378.24 183.88 357.91 183.88C351.87 183.88 346.98 178.98 346.98 172.94C346.98 164.14 346.98 148.69 346.98 139.89C346.98 133.85 351.87 128.95 357.91 128.95C378.24 128.95 428.29 128.95 448.62 128.95Z" id="cvGQbDc3Z"></path><path d="M512.22 234.17C518.26 234.17 523.16 239.07 523.16 245.11C523.16 253.91 523.16 269.36 523.16 278.16C523.16 284.2 518.26 289.1 512.22 289.1C491.89 289.1 441.85 289.1 421.52 289.1C415.48 289.1 410.58 284.2 410.58 278.16C410.58 269.36 410.58 253.91 410.58 245.11C410.58 239.07 415.48 234.17 421.52 234.17C441.85 234.17 491.89 234.17 512.22 234.17Z" id="d1fLEfKb3i"></path><path d="" id="a4arGqowzK"></path><path d="M506.52 289.1L523.16 298.36L523.16 273.77L506.52 289.1Z" id="f4nyndzXpj"></path><path d="M364.08 183.51L347.44 192.77L347.44 168.18L364.08 183.51Z" id="ajPrrSNmK"></path><path d="M619.25 342.68C619.25 373.68 594.75 398.84 564.56 398.84C534.38 398.84 509.87 373.68 509.87 342.68C509.87 311.69 534.38 286.52 564.56 286.52C594.75 286.52 619.25 311.69 619.25 342.68Z" id="hURRZy5L8"></path><path d="M362.32 248.77C362.32 279.77 337.81 304.93 307.63 304.93C277.44 304.93 252.94 279.77 252.94 248.77C252.94 217.77 277.44 192.61 307.63 192.61C337.81 192.61 362.32 217.77 362.32 248.77Z" id="a2fw0cQtxj"></path><path d="M447.73 137.66C448.97 137.66 449.97 138.67 449.97 139.91C449.97 140.36 449.97 139.46 449.97 139.91C449.97 141.15 448.97 142.16 447.73 142.16C429.55 142.16 377.27 142.16 359.1 142.16C357.86 142.16 356.85 141.15 356.85 139.91C356.85 139.46 356.85 140.36 356.85 139.91C356.85 138.67 357.86 137.66 359.1 137.66C377.27 137.66 429.55 137.66 447.73 137.66Z" id="i11mVt4Wxf"></path><path d="M447.73 147.77C448.97 147.77 449.97 148.78 449.97 150.02C449.97 150.47 449.97 149.57 449.97 150.02C449.97 151.26 448.97 152.27 447.73 152.27C429.55 152.27 377.27 152.27 359.1 152.27C357.86 152.27 356.85 151.26 356.85 150.02C356.85 149.57 356.85 150.47 356.85 150.02C356.85 148.78 357.86 147.77 359.1 147.77C377.27 147.77 429.55 147.77 447.73 147.77Z" id="cdoDccSIi"></path><path d="M388.26 170.43C389.04 170.43 389.67 171.06 389.67 171.83C389.67 172.45 389.67 172.89 389.67 173.51C389.67 174.29 389.04 174.92 388.26 174.92C381.98 174.92 364.54 174.92 358.26 174.92C357.48 174.92 356.85 174.29 356.85 173.51C356.85 172.89 356.85 172.45 356.85 171.83C356.85 171.06 357.48 170.43 358.26 170.43C364.54 170.43 381.98 170.43 388.26 170.43Z" id="fJB5AFjvB"></path><path d="M447.73 159C448.97 159 449.97 160.01 449.97 161.25C449.97 161.7 449.97 160.8 449.97 161.25C449.97 162.49 448.97 163.5 447.73 163.5C429.55 163.5 377.27 163.5 359.1 163.5C357.86 163.5 356.85 162.49 356.85 161.25C356.85 160.8 356.85 161.7 356.85 161.25C356.85 160.01 357.86 159 359.1 159C377.27 159 429.55 159 447.73 159Z" id="eolNXvUa3"></path><path d="M510.08 242.12C511.32 242.12 512.32 243.13 512.32 244.37C512.32 244.82 512.32 243.92 512.32 244.37C512.32 245.61 511.32 246.61 510.08 246.61C491.9 246.61 439.62 246.61 421.45 246.61C420.21 246.61 419.2 245.61 419.2 244.37C419.2 243.92 419.2 244.82 419.2 244.37C419.2 243.13 420.21 242.12 421.45 242.12C439.62 242.12 491.9 242.12 510.08 242.12Z" id="ajLoAG4Ps"></path><path d="M510.08 252.23C511.32 252.23 512.32 253.24 512.32 254.48C512.32 254.93 512.32 254.03 512.32 254.48C512.32 255.72 511.32 256.72 510.08 256.72C491.9 256.72 439.62 256.72 421.45 256.72C420.21 256.72 419.2 255.72 419.2 254.48C419.2 254.03 419.2 254.93 419.2 254.48C419.2 253.24 420.21 252.23 421.45 252.23C439.62 252.23 491.9 252.23 510.08 252.23Z" id="c1amOjRejJ"></path><path d="M510.08 263.46C511.32 263.46 512.32 264.47 512.32 265.71C512.32 266.16 512.32 265.26 512.32 265.71C512.32 266.95 511.32 267.95 510.08 267.95C491.9 267.95 439.62 267.95 421.45 267.95C420.21 267.95 419.2 266.95 419.2 265.71C419.2 265.26 419.2 266.16 419.2 265.71C419.2 264.47 420.21 263.46 421.45 263.46C439.62 263.46 491.9 263.46 510.08 263.46Z" id="a56lVexWi"></path><path d="M482.59 274.69C483.83 274.69 484.83 275.7 484.83 276.94C484.83 277.39 484.83 276.49 484.83 276.94C484.83 278.18 483.83 279.19 482.59 279.19C469.91 279.19 434.12 279.19 421.45 279.19C420.21 279.19 419.2 278.18 419.2 276.94C419.2 276.49 419.2 277.39 419.2 276.94C419.2 275.7 420.21 274.69 421.45 274.69C434.12 274.69 469.91 274.69 482.59 274.69Z" id="c3UMSR75IE"></path><path d="M451.34 342.68C455.88 342.68 459.55 346.36 459.55 350.9C459.55 357.29 459.55 368.25 459.55 374.64C459.55 379.18 455.88 382.86 451.34 382.86C430.47 382.86 376.06 382.86 355.19 382.86C350.65 382.86 346.98 379.18 346.98 374.64C346.98 368.25 346.98 357.29 346.98 350.9C346.98 346.36 350.65 342.68 355.19 342.68C376.06 342.68 430.47 342.68 451.34 342.68Z" id="a9VzfHYIPt"></path><path d="M364.08 383.44L347.44 392.7L347.44 368.11L364.08 383.44Z" id="baMtyJdP3"></path><path d="M447.73 354.44C448.97 354.44 449.97 355.45 449.97 356.69C449.97 357.14 449.97 356.24 449.97 356.69C449.97 357.93 448.97 358.93 447.73 358.93C429.55 358.93 377.27 358.93 359.1 358.93C357.86 358.93 356.85 357.93 356.85 356.69C356.85 356.24 356.85 357.14 356.85 356.69C356.85 355.45 357.86 354.44 359.1 354.44C377.27 354.44 429.55 354.44 447.73 354.44Z" id="csSMl0JI1"></path><path d="M447.73 365.67C448.97 365.67 449.97 366.68 449.97 367.92C449.97 368.37 449.97 367.47 449.97 367.92C449.97 369.16 448.97 370.17 447.73 370.17C429.55 370.17 377.27 370.17 359.1 370.17C357.86 370.17 356.85 369.16 356.85 367.92C356.85 367.47 356.85 368.37 356.85 367.92C356.85 366.68 357.86 365.67 359.1 365.67C377.27 365.67 429.55 365.67 447.73 365.67Z" id="i5Y0SFPlSq"></path><path d="M619.25 342.68C619.25 373.68 594.75 398.84 564.56 398.84C534.38 398.84 509.87 373.68 509.87 342.68C509.87 311.69 534.38 286.52 564.56 286.52C594.75 286.52 619.25 311.69 619.25 342.68Z" id="c47KeljiMp"></path><path d="M547.9 384.52C542.87 384.47 539.73 384.45 538.47 384.43C535.87 384.41 534.52 381.3 536.29 379.39C537.84 377.71 541.71 373.53 547.9 366.83L547.9 384.52Z" id="aPS5SSd6X"></path><path d="M543.77 392.46L586.43 392.46C586.43 393.46 586.43 394.08 586.43 394.33C586.43 394.78 586.07 395.15 585.62 395.15C577.25 395.15 552.96 395.15 544.59 395.15C544.14 395.15 543.77 394.78 543.77 394.33C543.77 394.08 543.77 393.46 543.77 392.46Z" id="a5VD6hpmWc"></path><path d="M578.49 392.46L586.37 392.46C586.37 393.36 586.37 393.92 586.36 394.15C586.36 394.7 585.92 395.15 585.36 395.15C584.99 395.15 584.06 395.15 582.58 395.15C580.57 395.15 579.31 395.15 578.81 395.15C578.63 395.15 578.49 395.01 578.49 394.84C578.49 394.52 578.49 393.73 578.49 392.46Z" id="c52i6IIgOI"></path><path d="M580.25 392.46L580.25 395.15L566.32 395.15L566.94 392.46L580.25 392.46Z" id="c17DXZeCSK"></path><path d="M554.99 324.82L570.12 324.82L570.12 326.74L554.99 326.74L554.99 324.82Z" id="c1dQuOtLj9"></path><path d="M546.84 380.05L542.53 380.05L546.84 375.78L546.84 380.05Z" id="kbM1L1jlM"></path><path d="M583.61 384.74C588.63 384.7 591.77 384.67 593.03 384.66C595.64 384.63 596.98 381.53 595.21 379.61C593.66 377.94 589.8 373.75 583.61 367.05L583.61 384.74Z" id="dVnTluxhT"></path><path d="M584.04 380.17L588.36 380.17L584.04 375.9L584.04 380.17Z" id="b1xOLJHi66"></path><path d="M567.09 346.39C557.28 353.78 551.15 358.4 548.7 360.24C547.25 361.34 545.27 359.9 545.85 358.18C547.1 354.5 547.93 351.98 548.34 350.62C549.05 348.24 549.55 345.52 549.82 342.47L549.82 328.93L567.09 346.39Z" id="bXdvDPRUp"></path><path d="M547.9 368.09L565.36 367.93L565 350.64C561.52 350.85 558.6 350.97 556.26 350.99C553.92 351.02 552.37 351.65 551.63 352.9L541.67 366.18L546.4 370.76L547.9 368.09Z" id="bPfaDvQpE"></path><path d="M582.02 368.32L564.56 368.16L564.92 350.86C568.41 350.97 571.32 351.03 573.66 351.06C576.01 351.08 577.71 352.14 578.77 354.24L588.25 366.4L583.52 370.98L582.02 368.32Z" id="a18VQiluJm"></path><path d="M562.58 344.85L569.1 344.85L569.1 354.04L562.58 354.04L562.58 344.85Z" id="b1P6fWvsLf"></path><path d="M564.56 355.36C563.6 358.31 562.49 359.62 561.21 359.29C559.93 358.97 559.34 357.79 559.45 355.77C558.81 356.86 558.01 356.72 557.06 355.36C556.1 353.99 556.9 352.42 559.45 350.64L564.56 355.36Z" id="cSFAEOQ3a"></path><path d="M565 355.36C565.96 358.31 567.08 359.62 568.36 359.29C569.63 358.97 570.22 357.79 570.12 355.77C570.75 356.86 571.55 356.72 572.51 355.36C573.47 353.99 572.67 352.42 570.12 350.64L565 355.36Z" id="arrmnRGIJ"></path><path d="M562.62 354.91C564.37 355.84 565.46 355.73 565.92 354.59L565.72 349.9L561.23 349.9L559.39 350.59C559.8 352.54 560.88 353.98 562.62 354.91Z" id="b7awu7I2c9"></path><path d="M566.69 355.13C564.79 356.06 563.59 355.95 563.09 354.81L563.32 350.13L568.21 350.13L570.21 350.82C569.76 352.76 568.59 354.2 566.69 355.13Z" id="c3izW2c3dB"></path><path d="M575.58 306.36C576.63 305.07 578.38 306.88 580.83 311.76C582.3 314.7 583.08 317.93 583.11 321.21C583.21 331.5 583.44 337.62 583.8 339.58C584.14 341.43 584.87 348.75 586.39 350.81C587.26 351.99 588.3 353.35 589.5 354.89C589.74 355.21 589.57 355.67 589.18 355.75C586.46 356.33 579.66 357.76 568.77 360.06C568.98 352.24 569.12 347.35 569.17 345.4C569.17 345.23 569.22 345.07 569.29 344.93C570.16 343.35 572.31 339.4 575.75 333.08L578.26 328.75L581.13 324.61L578.99 325.51L578.99 322.35L578.26 319.62C574.66 319.06 572.18 318.55 570.82 318.09C568.77 317.41 565.43 314.86 563.81 313.5C562.74 312.6 561.34 310.52 559.62 307.28C568.5 308.82 573.82 308.51 575.58 306.36Z" id="actcAkOd7"></path><path d="M579.36 326.62C579.36 337.31 572.85 345.99 564.83 345.99C556.81 345.99 550.3 337.31 550.3 326.62C550.3 315.93 556.81 307.25 564.83 307.25C572.85 307.25 579.36 315.93 579.36 326.62Z" id="b4DaRPpYGF"></path><path d="M555.19 329.44L551.39 331.9C548.77 328.73 547.77 326.32 548.41 324.68C549.05 323.04 550.36 323.53 552.35 326.15L555.19 329.44Z" id="deORWKzTr"></path><path d="M574.73 330.28L578.53 332.73C581.16 329.56 582.15 327.16 581.51 325.52C580.87 323.88 579.56 324.37 577.57 326.99L574.73 330.28Z" id="c5s625w7qH"></path><path d="M551.05 325.05L552.89 318.98C553.9 316.32 555.16 314.21 556.66 312.66C558.17 311.11 560.93 309 564.94 306.34C564.66 305.61 564.49 305.15 564.42 304.97C563.95 303.73 562.68 302.99 561.37 303.19C561.22 303.21 560.85 303.27 560.25 303.36L557.56 304.25C555.29 306.19 553.94 307.44 553.52 308C551.92 310.11 550.47 315.45 549.16 324.03L551.05 325.05Z" id="edJDLwWmW"></path><path d="M560.93 304.38L572.47 303.82L580.13 315.11L580.46 323.06C577.82 322.17 575.42 321.1 573.25 319.87C570.54 318.33 566.1 315.39 564.94 314.52C562.85 312.95 561.29 310.99 560.25 308.63L560.93 304.38Z" id="b2wczvyBzn"></path><path d="M584.83 363.75C585.71 363.75 586.42 364.46 586.42 365.34C586.42 370.64 586.42 384.96 586.42 390.26C586.42 391.13 585.71 391.85 584.83 391.85C576.62 391.85 553.56 391.85 545.35 391.85C544.47 391.85 543.76 391.13 543.76 390.26C543.76 384.96 543.76 370.64 543.76 365.34C543.76 364.46 544.47 363.75 545.35 363.75C553.56 363.75 576.62 363.75 584.83 363.75Z" id="c2vvsnTaA5"></path><path d="M558.52 307.97L574.28 317.56L581.7 316.43C580.93 311.97 580.02 309.08 578.97 307.76C578.24 306.84 574.62 303.31 572.27 302.85C569.57 302.31 565.75 302.09 563.92 302.19C562.26 302.28 560.5 303.62 558.96 304.9C558.39 305.38 557.2 306.4 555.4 307.97L558.52 307.97Z" id="i5N5hLQ2JK"></path><path d="M567.49 391.77L574.48 363.75L580.07 363.75C580.63 378.13 580.98 387.11 581.12 390.71C581.14 391.33 580.64 391.85 580.02 391.85C578.35 391.84 574.17 391.81 567.49 391.77Z" id="d3gedXSlIp"></path><path d="M584.7 363.75C585.65 363.75 586.42 364.52 586.42 365.46C586.42 370.74 586.42 384.85 586.42 390.13C586.42 391.08 585.65 391.84 584.7 391.84C583.62 391.84 581.46 391.84 580.22 391.84C579.71 391.84 579.3 391.43 579.3 390.93C579.3 385.49 579.3 370.1 579.3 364.67C579.3 364.16 579.71 363.75 580.22 363.75C581.46 363.75 583.62 363.75 584.7 363.75Z" id="j3TwSRgmHl"></path><path d="M511.23 378.99L514.9 387.12L521.12 387.12L521.12 378.99L511.23 378.99Z" id="b3dARLsik"></path><path d="M530.93 378.99L527.26 387.12L521.04 387.12L521.04 378.99L530.93 378.99Z" id="e3kyHc5idk"></path><path d="M520.68 359.16L521.26 359.16L521.26 379.03L520.68 379.03L520.68 359.16Z" id="a2qzt4Nn7D"></path><path d="M520.97 360.13C520.6 360.05 520.22 359.9 519.82 359.69C519.43 359.48 519.01 359.03 518.58 358.32C517.82 357.07 517.42 355.81 517.39 354.52C517.35 353.23 517.75 351.82 518.58 350.28L520.97 347.16L520.97 358.32L520.97 360.13Z" id="d4bIK6zCf9"></path><path d="M520.85 360.13C521.21 360.05 521.59 359.9 521.99 359.69C522.39 359.48 522.8 359.03 523.24 358.32C524 357.07 524.4 355.81 524.43 354.52C524.46 353.23 524.06 351.82 523.24 350.28L520.85 347.16L520.85 358.32L520.85 360.13Z" id="a20lYHQpu"></path><path d="M520.97 372.79L521.06 371.8L521.55 370.81L522.03 369.91L522.61 369.02L523.29 368.12L523.97 367.33L524.74 366.43L525.61 365.74L526.48 365.14L527.45 364.65L528.42 364.15" id="a7f0Vtxngb"></path><path d="M525.89 363.82C525.79 363.27 525.9 362.56 526.21 361.71C526.66 361.05 527.37 360.4 528.35 359.77C529.32 359.14 530.47 358.81 531.8 358.79L536.32 359.35C532.03 361.91 529.34 363.5 528.27 364.14C528.27 364.14 527.1 364.83 527.1 364.83C526.94 364.93 526.84 364.99 526.63 365.12C526.45 365.22 526.23 365.14 526.16 364.95C526.05 364.6 525.96 364.23 525.89 363.82Z" id="bNSPQCo8Q"></path><path d="M517.14 372.7L518.01 373.19L518.78 373.89L519.65 374.98L520.14 375.98L520.53 376.97L520.62 377.96L520.72 378.96" id="h5FKqN9lUo"></path><path d="M518.12 373C518.29 372.47 518.2 371.72 517.83 370.74C517.41 369.89 516.76 369.08 515.89 368.31C515.01 367.54 514.17 367.09 513.38 366.96L508.98 366.06C512.57 368.98 514.81 370.8 515.71 371.53C515.71 371.53 517.87 373.29 517.87 373.29C517.91 373.32 517.56 373.04 517.75 373.19C517.88 373.3 518.08 373.22 518.1 373.05C518.1 373.05 518.1 373.03 518.12 373Z" id="e1kcnRXc2J"></path><path d="M517.26 374C516.8 374.29 516.04 374.28 514.98 373.97C514.13 373.75 513.24 373.28 512.31 372.59C511.38 371.89 510.76 370.96 510.43 369.79L509.17 366.06C512.76 368.97 515.01 370.8 515.91 371.53C515.91 371.53 518.07 373.29 518.07 373.29C518.11 373.32 517.76 373.03 517.95 373.19C518.09 373.3 518.07 373.53 517.9 373.61C517.78 373.68 517.56 373.81 517.26 374Z" id="gVvGw67g7"></path><path d="M525.79 366.05C526.24 366.43 527.05 366.54 528.23 366.37C529.17 366.26 530.18 365.91 531.28 365.31C532.38 364.71 533.18 363.81 533.71 362.62L535.6 358.83C531.33 361.38 528.67 362.98 527.6 363.62C527.6 363.62 525.02 365.16 525.02 365.16C524.98 365.19 525.4 364.93 525.17 365.07C525 365.17 524.99 365.42 525.16 365.53C525.28 365.62 525.49 365.79 525.79 366.05Z" id="a16l3tlFJp"></path><path d="M362.32 248.77C362.32 279.77 337.81 304.93 307.63 304.93C277.44 304.93 252.94 279.77 252.94 248.77C252.94 217.77 277.44 192.61 307.63 192.61C337.81 192.61 362.32 217.77 362.32 248.77Z" id="b2jRYgizcD"></path><path d="M307.98 262.26L313.67 258.1L306.99 281.23L302.29 258.1L307.98 262.26Z" id="f3vFkwUJL"></path><path d="M327.92 232.57C327.92 245.31 318.9 255.65 307.79 255.65C296.69 255.65 287.67 245.31 287.67 232.57C287.67 219.84 296.69 209.5 307.79 209.5C318.9 209.5 327.92 219.84 327.92 232.57Z" id="b6FgH0Kzm"></path><path d="M308.56 254.98L312.91 254.43L312.91 260.79C311.46 261.93 309.75 262.58 307.79 262.74C305.82 262.9 304.22 262.25 302.98 260.79L302.98 254.43L308.56 254.98Z" id="d1kAnDuhNm"></path><path d="M284.2 226.55C281.7 223.19 282.95 219.73 287.96 216.17" id="alY5NXO5b"></path><path d="M289.98 225.66C294.02 220.92 296.33 217.36 296.91 214.99C297.78 211.43 310.2 212.91 318.93 212.39C324.75 212.04 327.61 218.61 327.53 232.09C327.54 232.09 327.55 232.08 327.55 232.08C328.84 231.22 329.37 229.58 328.83 228.13C326.18 221 324.68 215.75 324.35 212.39C323.97 208.49 321.85 207.57 318 209.65C309.72 207.47 302.4 207.97 296.05 211.13C286.51 215.88 286.8 220.62 285.94 228.33C285.36 233.47 286.13 234.73 288.25 232.09L289.98 225.66Z" id="aPh8jKNHa"></path><path d="M288.72 235.35L289.31 239.57C286.82 234.76 285.84 231.8 286.36 230.69C286.89 229.57 287.67 229.85 288.72 231.52L288.72 235.35Z" id="c15tl06Eh"></path><path d="M326.97 234.17L326.37 238.38C328.87 233.58 329.85 230.61 329.33 229.5C328.8 228.39 328.02 228.66 326.97 230.34L326.97 234.17Z" id="bckEsbHPE"></path><path d="M330.46 209.6C334.7 213.19 333.91 220.24 328.09 230.75C326.45 225.37 324.2 219.6 321.33 213.45C318.46 207.3 316 204.86 313.95 206.14C320.72 204.86 326.22 206.02 330.46 209.6Z" id="e1jrpqG2e"></path><path d="M302.31 213.1L327.62 217.11C326.63 212.53 325.44 208.67 324.05 205.54C322.66 202.4 319.7 200.72 315.18 200.48C308.98 198.79 302.31 198.79 295.16 200.48C288.01 202.16 284.41 208.07 284.35 218.19L302.31 213.1Z" id="aEobRMoGD"></path><path d="M293.16 219.91L286.02 228.04C283.91 221.3 283.77 216.48 285.58 213.59C287.39 210.7 288.63 210.7 289.3 213.59L293.16 219.91Z" id="b3iuUkhxOp"></path><path d="M290.27 216.15L297.2 206.09C294.51 205.89 291.52 206.38 288.25 207.57C284.97 208.76 283.76 211.62 284.61 216.15L290.27 216.15Z" id="a1EyVKiJK1"></path><path d="M295.76 206.43L311.35 205.23L326.95 209.93L326.09 225.37L320.31 217.8L311.35 214.62L300.96 215.97L292.87 221.34L295.76 206.43Z" id="a19OcSUKT"></path><path d="M301.71 208.42L322.43 209.5L324.83 207.47L323.09 202.61C321.65 200.54 319.62 199.04 317.02 198.13C314.42 197.21 307.81 198.24 297.2 201.23L301.71 208.42Z" id="b4TuOvMp3I"></path><path d="M307.89 274.3L307.89 290.69L301.14 278.16L302.35 271.26L300.23 274.3L297.2 266L303.26 260.96L307.89 274.3Z" id="ecIMR2Wpd"></path><path d="M307.52 274.3L307.52 290.69L315.37 278.16L313.96 271.26L316.42 274.3L319.94 266L312.9 260.96L307.52 274.3Z" id="a2KDeEqw4P"></path><path d="M300.38 272.21L302.87 269.77L301.82 277.26L308.37 289.19L308.37 304.93L300.38 304.93L295.92 303.42L289.51 302.16L285.45 299.75C286.93 286.14 287.86 277.66 288.25 274.33C288.63 270.99 291.81 267.81 297.78 264.8L300.38 272.21Z" id="j1QLg3xO1"></path><path d="M307.6 273.58L308.03 273.58L308.03 297.7L307.6 297.7L307.6 273.58Z" id="iP6lbDAg"></path><path d="M289.51 298L285.45 300.36L280.67 298C282.16 291.45 283.27 286.44 284.02 282.99C284.76 279.53 286.32 276.16 288.68 272.88L289.51 298Z" id="a6juR40GEy"></path><path d="M326.37 302.16L334.49 298C333 291.16 331.89 285.94 331.14 282.34C330.4 278.73 328.85 275.22 326.48 271.8L326.37 302.16Z" id="bKfDCz4P1"></path><path d="M315.15 272.2L312.65 269.75L313.7 277.24L307.15 289.18L308.14 304.91L315.15 304.91L319.6 303.41L326.02 302.14L330.07 299.74C328.59 286.12 327.66 277.65 327.28 274.31C326.89 270.97 323.72 267.8 317.75 264.78L315.15 272.2Z" id="ajXweu7uI"></path><path d="M342.76 268.04L351.47 268.04L351.47 277.93L342.76 277.93L342.76 268.04Z" id="coYtDvdL"></path><path d="M360.49 291.55L333.14 291.55L347.34 269.41L360.49 291.55Z" id="f1zytVGq"></path><path d="M357.85 289.8C359.3 289.8 360.49 290.98 360.49 292.44C360.49 292.97 360.49 291.91 360.49 292.44C360.49 293.9 359.3 295.08 357.85 295.08C352.91 295.08 340.72 295.08 335.78 295.08C334.32 295.08 333.14 293.9 333.14 292.44C333.14 291.91 333.14 292.97 333.14 292.44C333.14 290.98 334.32 289.8 335.78 289.8C340.72 289.8 352.91 289.8 357.85 289.8Z" id="c4lTuqB7VU"></path><path d="M357.78 292.44L350.57 279.31L344.56 279.31L336.45 292.44L357.78 292.44Z" id="b1tody4er"></path><path d="M352.19 265.53C352.96 265.53 353.58 266.15 353.58 266.91C353.58 267.19 353.58 266.64 353.58 266.91C353.58 267.68 352.96 268.3 352.19 268.3C350 268.3 344.8 268.3 342.61 268.3C341.84 268.3 341.23 267.68 341.23 266.91C341.23 266.64 341.23 267.19 341.23 266.91C341.23 266.15 341.84 265.53 342.61 265.53C344.8 265.53 350 265.53 352.19 265.53Z" id="cB667fvkP"></path><path d="M343.7 257.72C343.7 258.83 342.72 259.74 341.51 259.74C340.31 259.74 339.33 258.83 339.33 257.72C339.33 256.61 340.31 255.7 341.51 255.7C342.72 255.7 343.7 256.61 343.7 257.72Z" id="b2h9HKeVCe"></path><path d="M345.46 249.79C345.46 250.49 344.86 251.05 344.11 251.05C343.36 251.05 342.76 250.49 342.76 249.79C342.76 249.09 343.36 248.52 344.11 248.52C344.86 248.52 345.46 249.09 345.46 249.79Z" id="i3ncobCWMp"></path><path d="M352.35 254.03C352.35 254.95 351.52 255.7 350.49 255.7C349.47 255.7 348.64 254.95 348.64 254.03C348.64 253.11 349.47 252.36 350.49 252.36C351.52 252.36 352.35 253.11 352.35 254.03Z" id="f19hZp1Xv"></path><path d="M150.44 243.41C182.15 243.41 201.98 243.41 209.9 243.41C220.52 243.41 229.13 252.02 229.13 262.63C229.13 271.55 229.13 293.84 229.13 329.5L150.44 329.5L150.44 243.41Z" id="c3n7PXgcX1"></path><path d="M94.02 262.61L132.12 262.61L132.12 329.34L94.01 329.34L94.02 262.61Z" id="bTKJX3rLQ"></path><path d="M63.69 262.23L156.43 262.23L156.43 319.67L63.69 319.67L63.69 262.23Z" id="f5G2edO04"></path><path d="M110.06 294.16L156.43 262.23L63.69 262.23L110.06 294.16Z" id="c5OHUUDJig"></path><path d="M129.89 258.01L127.12 251.05L120.97 246.48L108.31 243.8L163.71 243.41L163.71 329.5L130.49 329.5L129.89 258.01Z" id="bmzAN2csl"></path><path d="M147.18 192.61L153.7 192.61L153.7 262.05L147.18 262.05L147.18 192.61Z" id="b1dac3YcWu"></path><path d="M142.83 192.61L147.18 192.61L147.18 262.05L142.83 262.05L142.83 192.61Z" id="a838tqQCZ6"></path><path d="M155.01 260.18C155.01 264.01 152.08 267.12 148.48 267.12C144.88 267.12 141.96 264.01 141.96 260.18C141.96 256.34 144.88 253.23 148.48 253.23C152.08 253.23 155.01 256.34 155.01 260.18Z" id="f6Cz3x3dIO"></path><path d="M166.68 202.19L156.56 210.92L166.68 219.78L142.83 219.78L142.83 202.19L166.68 202.19Z" id="amS4xGuX1"></path><path d="M156.85 327.71L172.3 327.71L172.3 457.32L156.85 457.32L156.85 327.71Z" id="boYz1wNO4"></path><path d="M166.13 327.56L178.27 327.56L178.27 457.17L166.13 457.17L166.13 327.56Z" id="d3mcK6XwBT"></path><path d="M71.95 289.09L89.74 289.09L89.74 302.3L71.95 302.3L71.95 289.09Z" id="atPJ5D9W"></path><path d="M47.08 319.67L94.89 319.67L94.89 329.39L47.08 329.39L47.08 319.67Z" id="h6PrCzQ"></path><path d="M89.66 252.77C90.82 251.55 92.33 250.2 94.16 248.72C95.8 247.4 97.71 246.45 99.75 245.95C103.98 244.91 107.17 244.39 109.3 244.39C111.3 244.39 114.11 244.71 117.72 245.34C120.03 245.75 122.21 246.72 124.06 248.17C125.87 249.58 127.28 250.99 128.29 252.39C129.91 254.64 130.45 257.87 129.93 262.08L87.56 262.08C87.18 257.73 87.87 254.63 89.66 252.77Z" id="c9bVne98O"></path><path d="M3.56 490.09L596.83 490.09L596.83 562.51L3.56 562.51L3.56 490.09Z" id="a8szhFtnD"></path><path d="M637.98 503.01L637.98 435.16L596.44 490.09L596.44 562.51L637.98 503.01Z" id="d597LyVFND"></path></defs><g><g><g><use xlink:href="#a27FLpqec" opacity="1" fill="#a6d1c3" fill-opacity="1"></use><g><use xlink:href="#a27FLpqec" opacity="1" fill-opacity="0" stroke="#ffffff" stroke-width="0" stroke-opacity="1"></use></g></g><g><use xlink:href="#belrPc8n" opacity="1" fill="#babcd2" fill-opacity="1"></use></g><g><use xlink:href="#lBPfnuBpB" opacity="1" fill="#342f51" fill-opacity="1"></use></g><g><use xlink:href="#gCmN3DpGI" opacity="1" fill="#eeebf2" fill-opacity="1"></use></g><g><use xlink:href="#i14LwVudDq" opacity="1" fill="#342f51" fill-opacity="1"></use></g><g><use xlink:href="#c14z0hE7uu" opacity="1" fill="#eeebf2" fill-opacity="1"></use></g><g><use xlink:href="#e1pknTDFCH" opacity="1" fill="#eeebf2" fill-opacity="1"></use></g><g><use xlink:href="#e376dVV3jp" opacity="1" fill="#332f51" fill-opacity="0"></use><g><use xlink:href="#e376dVV3jp" opacity="1" fill-opacity="0" stroke="#202b48" stroke-width="2" stroke-opacity="1"></use></g></g><g><use xlink:href="#bw3ndw7lR" opacity="1" fill="#202b48" fill-opacity="1"></use><g><use xlink:href="#bw3ndw7lR" opacity="1" fill-opacity="0" stroke="#202b48" stroke-width="0" stroke-opacity="1"></use></g></g><g><g><use xlink:href="#bIS0faX9i" opacity="1" fill-opacity="0" stroke="#ffffff" stroke-width="2" stroke-opacity="1"></use></g></g><g><g><use xlink:href="#c1NG7OwTu0" opacity="1" fill-opacity="0" stroke="#ffffff" stroke-width="2" stroke-opacity="1"></use></g></g><g><g><use xlink:href="#a32uPGavJr" opacity="1" fill-opacity="0" stroke="#ffffff" stroke-width="2" stroke-opacity="1"></use></g></g><g><use xlink:href="#e16k7fAQP" opacity="1" fill="#342f51" fill-opacity="1"></use></g><g><use xlink:href="#cvGQbDc3Z" opacity="1" fill="#848699" fill-opacity="1"></use></g><g><use xlink:href="#d1fLEfKb3i" opacity="1" fill="#e486b2" fill-opacity="1"></use></g><g><g><use xlink:href="#a4arGqowzK" opacity="1" fill-opacity="0" stroke="#ffffff" stroke-width="2" stroke-opacity="1"></use></g></g><g><use xlink:href="#f4nyndzXpj" opacity="1" fill="#e486b2" fill-opacity="1"></use><g><use xlink:href="#f4nyndzXpj" opacity="1" fill-opacity="0" stroke="#ffffff" stroke-width="0" stroke-opacity="1"></use></g></g><g><use xlink:href="#ajPrrSNmK" opacity="1" fill="#848699" fill-opacity="1"></use><g><use xlink:href="#ajPrrSNmK" opacity="1" fill-opacity="0" stroke="#ffffff" stroke-width="0" stroke-opacity="1"></use></g></g><g><use xlink:href="#hURRZy5L8" opacity="1" fill="#ffffff" fill-opacity="1"></use><g><use xlink:href="#hURRZy5L8" opacity="1" fill-opacity="0" stroke="#e486b2" stroke-width="4" stroke-opacity="1"></use></g></g><g><use xlink:href="#a2fw0cQtxj" opacity="1" fill="#ffffff" fill-opacity="1"></use><g><use xlink:href="#a2fw0cQtxj" opacity="1" fill-opacity="0" stroke="#848699" stroke-width="4" stroke-opacity="1"></use></g></g><g><use xlink:href="#i11mVt4Wxf" opacity="1" fill="#eeebf2" fill-opacity="1"></use></g><g><use xlink:href="#cdoDccSIi" opacity="1" fill="#eeebf2" fill-opacity="1"></use></g><g><use xlink:href="#fJB5AFjvB" opacity="1" fill="#eeebf2" fill-opacity="1"></use></g><g><use xlink:href="#eolNXvUa3" opacity="1" fill="#eeebf2" fill-opacity="1"></use></g><g><use xlink:href="#ajLoAG4Ps" opacity="1" fill="#eeebf2" fill-opacity="1"></use></g><g><use xlink:href="#c1amOjRejJ" opacity="1" fill="#eeebf2" fill-opacity="1"></use></g><g><use xlink:href="#a56lVexWi" opacity="1" fill="#eeebf2" fill-opacity="1"></use></g><g><use xlink:href="#c3UMSR75IE" opacity="1" fill="#eeebf2" fill-opacity="1"></use></g><g><use xlink:href="#a9VzfHYIPt" opacity="1" fill="#848699" fill-opacity="1"></use></g><g><use xlink:href="#baMtyJdP3" opacity="1" fill="#848699" fill-opacity="1"></use><g><use xlink:href="#baMtyJdP3" opacity="1" fill-opacity="0" stroke="#ffffff" stroke-width="0" stroke-opacity="1"></use></g></g><g><use xlink:href="#csSMl0JI1" opacity="1" fill="#eeebf2" fill-opacity="1"></use></g><g><use xlink:href="#i5Y0SFPlSq" opacity="1" fill="#eeebf2" fill-opacity="1"></use></g><g><use xlink:href="#c47KeljiMp" opacity="1" fill="#eff1ff" fill-opacity="1"></use></g><g><use xlink:href="#aPS5SSd6X" opacity="1" fill="#fde4c8" fill-opacity="1"></use><g><use xlink:href="#aPS5SSd6X" opacity="1" fill-opacity="0" stroke="#000000" stroke-width="0" stroke-opacity="1"></use></g></g><g><use xlink:href="#a5VD6hpmWc" opacity="1" fill="#d2d2d2" fill-opacity="1"></use></g><g><use xlink:href="#c52i6IIgOI" opacity="1" fill="#9c9c9c" fill-opacity="1"></use></g><g><use xlink:href="#c17DXZeCSK" opacity="1" fill="#9c9c9c" fill-opacity="1"></use><g><use xlink:href="#c17DXZeCSK" opacity="1" fill-opacity="0" stroke="#07a978" stroke-width="0" stroke-opacity="1"></use></g></g><g><use xlink:href="#c1dQuOtLj9" opacity="1" fill="#df4a63" fill-opacity="1"></use></g><g><use xlink:href="#kbM1L1jlM" opacity="1" fill="#dfebe7" fill-opacity="1"></use><g><use xlink:href="#kbM1L1jlM" opacity="1" fill-opacity="0" stroke="#000000" stroke-width="0" stroke-opacity="1"></use></g></g><g><use xlink:href="#dVnTluxhT" opacity="1" fill="#fde4c8" fill-opacity="1"></use><g><use xlink:href="#dVnTluxhT" opacity="1" fill-opacity="0" stroke="#000000" stroke-width="0" stroke-opacity="1"></use></g></g><g><use xlink:href="#b1xOLJHi66" opacity="1" fill="#dfebe7" fill-opacity="1"></use><g><use xlink:href="#b1xOLJHi66" opacity="1" fill-opacity="0" stroke="#000000" stroke-width="0" stroke-opacity="1"></use></g></g><g><use xlink:href="#bXdvDPRUp" opacity="1" fill="#000000" fill-opacity="1"></use><g><use xlink:href="#bXdvDPRUp" opacity="1" fill-opacity="0" stroke="#000000" stroke-width="1" stroke-opacity="1"></use></g></g><g><use xlink:href="#bPfaDvQpE" opacity="1" fill="#b76b75" fill-opacity="1"></use><g><use xlink:href="#bPfaDvQpE" opacity="1" fill-opacity="0" stroke="#000000" stroke-width="0" stroke-opacity="1"></use></g></g><g><use xlink:href="#a18VQiluJm" opacity="1" fill="#b76b75" fill-opacity="1"></use><g><use xlink:href="#a18VQiluJm" opacity="1" fill-opacity="0" stroke="#000000" stroke-width="0" stroke-opacity="1"></use></g></g><g><use xlink:href="#b1P6fWvsLf" opacity="1" fill="#fde4c8" fill-opacity="1"></use></g><g><use xlink:href="#cSFAEOQ3a" opacity="1" fill="#f0bab2" fill-opacity="1"></use><g><use xlink:href="#cSFAEOQ3a" opacity="1" fill-opacity="0" stroke="#000000" stroke-width="0" stroke-opacity="1"></use></g></g><g><use xlink:href="#arrmnRGIJ" opacity="1" fill="#f0bab2" fill-opacity="1"></use><g><use xlink:href="#arrmnRGIJ" opacity="1" fill-opacity="0" stroke="#000000" stroke-width="0" stroke-opacity="1"></use></g></g><g><use xlink:href="#b7awu7I2c9" opacity="1" fill="#fde4c8" fill-opacity="1"></use><g><use xlink:href="#b7awu7I2c9" opacity="1" fill-opacity="0" stroke="#000000" stroke-width="0" stroke-opacity="1"></use></g></g><g><use xlink:href="#c3izW2c3dB" opacity="1" fill="#fde4c8" fill-opacity="1"></use><g><use xlink:href="#c3izW2c3dB" opacity="1" fill-opacity="0" stroke="#000000" stroke-width="0" stroke-opacity="1"></use></g></g><g><use xlink:href="#actcAkOd7" opacity="1" fill="#000000" fill-opacity="1"></use><g><use xlink:href="#actcAkOd7" opacity="1" fill-opacity="0" stroke="#000000" stroke-width="1" stroke-opacity="1"></use></g></g><g><use xlink:href="#b4DaRPpYGF" opacity="1" fill="#fde4c8" fill-opacity="1"></use></g><g><use xlink:href="#deORWKzTr" opacity="1" fill="#fde4c8" fill-opacity="1"></use><g><use xlink:href="#deORWKzTr" opacity="1" fill-opacity="0" stroke="#000000" stroke-width="0" stroke-opacity="1"></use></g></g><g><use xlink:href="#c5s625w7qH" opacity="1" fill="#fde4c8" fill-opacity="1"></use><g><use xlink:href="#c5s625w7qH" opacity="1" fill-opacity="0" stroke="#000000" stroke-width="0" stroke-opacity="1"></use></g></g><g><use xlink:href="#edJDLwWmW" opacity="1" fill="#000000" fill-opacity="1"></use><g><use xlink:href="#edJDLwWmW" opacity="1" fill-opacity="0" stroke="#000000" stroke-width="1" stroke-opacity="1"></use></g></g><g><use xlink:href="#b2wczvyBzn" opacity="1" fill="#000000" fill-opacity="1"></use><g><use xlink:href="#b2wczvyBzn" opacity="1" fill-opacity="0" stroke="#000000" stroke-width="1" stroke-opacity="1"></use></g></g><g><use xlink:href="#c2vvsnTaA5" opacity="1" fill="#d2d2d2" fill-opacity="1"></use></g><g><use xlink:href="#i5N5hLQ2JK" opacity="1" fill="#000000" fill-opacity="1"></use><g><use xlink:href="#i5N5hLQ2JK" opacity="1" fill-opacity="0" stroke="#000000" stroke-width="1" stroke-opacity="1"></use></g></g><g><use xlink:href="#d3gedXSlIp" opacity="1" fill="#9c9c9c" fill-opacity="1"></use><g><use xlink:href="#d3gedXSlIp" opacity="1" fill-opacity="0" stroke="#07a978" stroke-width="0" stroke-opacity="1"></use></g></g><g><use xlink:href="#j3TwSRgmHl" opacity="1" fill="#9c9c9c" fill-opacity="1"></use></g><g><use xlink:href="#b3dARLsik" opacity="1" fill="#794a15" fill-opacity="1"></use><g><use xlink:href="#b3dARLsik" opacity="1" fill-opacity="0" stroke="#000000" stroke-width="0" stroke-opacity="1"></use></g></g><g><use xlink:href="#e3kyHc5idk" opacity="1" fill="#683a15" fill-opacity="1"></use><g><use xlink:href="#e3kyHc5idk" opacity="1" fill-opacity="0" stroke="#000000" stroke-width="0" stroke-opacity="1"></use></g></g><g><use xlink:href="#a2qzt4Nn7D" opacity="1" fill="#07a978" fill-opacity="1"></use></g><g><use xlink:href="#d4bIK6zCf9" opacity="1" fill="#07a978" fill-opacity="1"></use><g><use xlink:href="#d4bIK6zCf9" opacity="1" fill-opacity="0" stroke="#000000" stroke-width="0" stroke-opacity="1"></use></g></g><g><use xlink:href="#a20lYHQpu" opacity="1" fill="#067455" fill-opacity="1"></use><g><use xlink:href="#a20lYHQpu" opacity="1" fill-opacity="0" stroke="#000000" stroke-width="0" stroke-opacity="1"></use></g></g><g><g><use xlink:href="#a7f0Vtxngb" opacity="1" fill-opacity="0" stroke="#07a978" stroke-width="3" stroke-opacity="1"></use></g></g><g><use xlink:href="#bNSPQCo8Q" opacity="1" fill="#07a978" fill-opacity="1"></use><g><use xlink:href="#bNSPQCo8Q" opacity="1" fill-opacity="0" stroke="#000000" stroke-width="0" stroke-opacity="1"></use></g></g><g><g><use xlink:href="#h5FKqN9lUo" opacity="1" fill-opacity="0" stroke="#07a978" stroke-width="3" stroke-opacity="1"></use></g></g><g><use xlink:href="#e1kcnRXc2J" opacity="1" fill="#067455" fill-opacity="1"></use><g><use xlink:href="#e1kcnRXc2J" opacity="1" fill-opacity="0" stroke="#000000" stroke-width="0" stroke-opacity="1"></use></g></g><g><use xlink:href="#gVvGw67g7" opacity="1" fill="#07a978" fill-opacity="1"></use><g><use xlink:href="#gVvGw67g7" opacity="1" fill-opacity="0" stroke="#000000" stroke-width="0" stroke-opacity="1"></use></g></g><g><use xlink:href="#a16l3tlFJp" opacity="1" fill="#067455" fill-opacity="1"></use><g><use xlink:href="#a16l3tlFJp" opacity="1" fill-opacity="0" stroke="#000000" stroke-width="0" stroke-opacity="1"></use></g></g><g><use xlink:href="#b2jRYgizcD" opacity="1" fill="#ffeaf4" fill-opacity="1"></use></g><g><use xlink:href="#f3vFkwUJL" opacity="1" fill="#a7d7d8" fill-opacity="1"></use><g><use xlink:href="#f3vFkwUJL" opacity="1" fill-opacity="0" stroke="#865858" stroke-width="0" stroke-opacity="1"></use></g></g><g><use xlink:href="#b6FgH0Kzm" opacity="1" fill="#c58f6f" fill-opacity="1"></use></g><g><use xlink:href="#d1kAnDuhNm" opacity="1" fill="#bd8c6f" fill-opacity="1"></use><g><use xlink:href="#d1kAnDuhNm" opacity="1" fill-opacity="0" stroke="#ffffff" stroke-width="0" stroke-opacity="1"></use></g></g><g><g><use xlink:href="#alY5NXO5b" opacity="1" fill-opacity="0" stroke="#865858" stroke-width="0" stroke-opacity="1"></use></g></g><g><use xlink:href="#aPh8jKNHa" opacity="1" fill="#000000" fill-opacity="1"></use><g><use xlink:href="#aPh8jKNHa" opacity="1" fill-opacity="0" stroke="#865858" stroke-width="0" stroke-opacity="1"></use></g></g><g><use xlink:href="#c15tl06Eh" opacity="1" fill="#cf9674" fill-opacity="1"></use><g><use xlink:href="#c15tl06Eh" opacity="1" fill-opacity="0" stroke="#865858" stroke-width="0" stroke-opacity="1"></use></g></g><g><use xlink:href="#bckEsbHPE" opacity="1" fill="#cf9674" fill-opacity="1"></use><g><use xlink:href="#bckEsbHPE" opacity="1" fill-opacity="0" stroke="#865858" stroke-width="0" stroke-opacity="1"></use></g></g><g><use xlink:href="#e1jrpqG2e" opacity="1" fill="#000000" fill-opacity="1"></use><g><use xlink:href="#e1jrpqG2e" opacity="1" fill-opacity="0" stroke="#865858" stroke-width="0" stroke-opacity="1"></use></g></g><g><use xlink:href="#aEobRMoGD" opacity="1" fill="#000000" fill-opacity="1"></use><g><use xlink:href="#aEobRMoGD" opacity="1" fill-opacity="0" stroke="#865858" stroke-width="0" stroke-opacity="1"></use></g></g><g><use xlink:href="#b3iuUkhxOp" opacity="1" fill="#000000" fill-opacity="1"></use><g><use xlink:href="#b3iuUkhxOp" opacity="1" fill-opacity="0" stroke="#865858" stroke-width="0" stroke-opacity="1"></use></g></g><g><use xlink:href="#a1EyVKiJK1" opacity="1" fill="#000000" fill-opacity="1"></use><g><use xlink:href="#a1EyVKiJK1" opacity="1" fill-opacity="0" stroke="#865858" stroke-width="0" stroke-opacity="1"></use></g></g><g><use xlink:href="#a19OcSUKT" opacity="1" fill="#000000" fill-opacity="1"></use><g><use xlink:href="#a19OcSUKT" opacity="1" fill-opacity="0" stroke="#865858" stroke-width="0" stroke-opacity="1"></use></g></g><g><use xlink:href="#b4TuOvMp3I" opacity="1" fill="#000000" fill-opacity="1"></use><g><use xlink:href="#b4TuOvMp3I" opacity="1" fill-opacity="0" stroke="#865858" stroke-width="0" stroke-opacity="1"></use></g></g><g><use xlink:href="#ecIMR2Wpd" opacity="1" fill="#ececec" fill-opacity="1"></use><g><use xlink:href="#ecIMR2Wpd" opacity="1" fill-opacity="0" stroke="#000000" stroke-width="0" stroke-opacity="1"></use></g></g><g><use xlink:href="#a2KDeEqw4P" opacity="1" fill="#ececec" fill-opacity="1"></use><g><use xlink:href="#a2KDeEqw4P" opacity="1" fill-opacity="0" stroke="#000000" stroke-width="0" stroke-opacity="1"></use></g></g><g><use xlink:href="#j1QLg3xO1" opacity="1" fill="#dedede" fill-opacity="1"></use><g><use xlink:href="#j1QLg3xO1" opacity="1" fill-opacity="0" stroke="#000000" stroke-width="0" stroke-opacity="1"></use></g></g><g><use xlink:href="#iP6lbDAg" opacity="1" fill="#929292" fill-opacity="1"></use></g><g><use xlink:href="#a6juR40GEy" opacity="1" fill="#dedede" fill-opacity="1"></use><g><use xlink:href="#a6juR40GEy" opacity="1" fill-opacity="0" stroke="#dedede" stroke-width="0" stroke-opacity="1"></use></g></g><g><use xlink:href="#bKfDCz4P1" opacity="1" fill="#e4e4e4" fill-opacity="1"></use><g><use xlink:href="#bKfDCz4P1" opacity="1" fill-opacity="0" stroke="#dedede" stroke-width="0" stroke-opacity="1"></use></g></g><g><use xlink:href="#ajXweu7uI" opacity="1" fill="#dedede" fill-opacity="1"></use><g><use xlink:href="#ajXweu7uI" opacity="1" fill-opacity="0" stroke="#000000" stroke-width="0" stroke-opacity="1"></use></g></g><g><use xlink:href="#coYtDvdL" opacity="1" fill="#848699" fill-opacity="1"></use></g><g><use xlink:href="#f1zytVGq" opacity="1" fill="#848699" fill-opacity="1"></use><g><use xlink:href="#f1zytVGq" opacity="1" fill-opacity="0" stroke="#292525" stroke-width="0" stroke-opacity="1"></use></g></g><g><use xlink:href="#c4lTuqB7VU" opacity="1" fill="#848699" fill-opacity="1"></use></g><g><use xlink:href="#b1tody4er" opacity="1" fill="#62b3de" fill-opacity="1"></use><g><use xlink:href="#b1tody4er" opacity="1" fill-opacity="0" stroke="#62b3de" stroke-width="2" stroke-opacity="1"></use></g></g><g><use xlink:href="#cB667fvkP" opacity="1" fill="#848699" fill-opacity="1"></use></g><g><use xlink:href="#b2h9HKeVCe" opacity="1" fill="#62b3de" fill-opacity="1"></use><g><use xlink:href="#b2h9HKeVCe" opacity="1" fill-opacity="0" stroke="#848699" stroke-width="1" stroke-opacity="1"></use></g></g><g><use xlink:href="#i3ncobCWMp" opacity="1" fill="#62b3de" fill-opacity="1"></use><g><use xlink:href="#i3ncobCWMp" opacity="1" fill-opacity="0" stroke="#848699" stroke-width="1" stroke-opacity="1"></use></g></g><g><use xlink:href="#f19hZp1Xv" opacity="1" fill="#62b3de" fill-opacity="1"></use><g><use xlink:href="#f19hZp1Xv" opacity="1" fill-opacity="0" stroke="#848699" stroke-width="1" stroke-opacity="1"></use></g></g><g><use xlink:href="#c3n7PXgcX1" opacity="1" fill="#cca8cb" fill-opacity="1"></use></g><g><use xlink:href="#bTKJX3rLQ" opacity="1" fill="#804b75" fill-opacity="1"></use></g><g><use xlink:href="#f5G2edO04" opacity="1" fill="#f9bdd9" fill-opacity="1"></use></g><g><use xlink:href="#c5OHUUDJig" opacity="1" fill="#e486b2" fill-opacity="1"></use><g><use xlink:href="#c5OHUUDJig" opacity="1" fill-opacity="0" stroke="#8fecfe" stroke-width="0" stroke-opacity="1"></use></g></g><g><use xlink:href="#bmzAN2csl" opacity="1" fill="#cca8cb" fill-opacity="1"></use></g><g><use xlink:href="#b1dac3YcWu" opacity="1" fill="#8ca0c3" fill-opacity="1"></use></g><g><use xlink:href="#a838tqQCZ6" opacity="1" fill="#848699" fill-opacity="1"></use></g><g><use xlink:href="#f6Cz3x3dIO" opacity="1" fill="#804b75" fill-opacity="1"></use></g><g><use xlink:href="#amS4xGuX1" opacity="1" fill="#f5ad97" fill-opacity="1"></use><g><use xlink:href="#amS4xGuX1" opacity="1" fill-opacity="0" stroke="#8fecfe" stroke-width="0" stroke-opacity="1"></use></g></g><g><use xlink:href="#boYz1wNO4" opacity="1" fill="#848699" fill-opacity="1"></use></g><g><use xlink:href="#d3mcK6XwBT" opacity="1" fill="#8ca0c3" fill-opacity="1"></use></g><g><use xlink:href="#atPJ5D9W" opacity="1" fill="#62b3de" fill-opacity="1"></use><g><use xlink:href="#atPJ5D9W" opacity="1" fill-opacity="0" stroke="#ffffff" stroke-width="1" stroke-opacity="1"></use></g></g><g><use xlink:href="#h6PrCzQ" opacity="1" fill="#804b75" fill-opacity="1"></use></g><g><use xlink:href="#c9bVne98O" opacity="1" fill="#804b75" fill-opacity="1"></use><g><use xlink:href="#c9bVne98O" opacity="1" fill-opacity="0" stroke="#8fecfe" stroke-width="0" stroke-opacity="1"></use></g></g><g><use xlink:href="#a8szhFtnD" opacity="1" fill="#d9dbec" fill-opacity="1"></use></g><g><use xlink:href="#d597LyVFND" opacity="1" fill="#999db4" fill-opacity="1"></use><g><use xlink:href="#d597LyVFND" opacity="1" fill-opacity="0" stroke="#000000" stroke-width="0" stroke-opacity="1"></use></g></g></g></g></svg>